<svg width="375" height="72" viewBox="0 0 375 72" fill="none" xmlns="http://www.w3.org/2000/svg">
<path d="M17.1378 33V19.9091H19.9055V25.3104H25.5241V19.9091H28.2855V33H25.5241V27.5923H19.9055V33H17.1378ZM30.5163 33V23.1818H33.2393V33H30.5163ZM31.8842 21.9162C31.4794 21.9162 31.1321 21.782 30.8423 21.5135C30.5568 21.2408 30.4141 20.9148 30.4141 20.5355C30.4141 20.1605 30.5568 19.8388 30.8423 19.5703C31.1321 19.2976 31.4794 19.1612 31.8842 19.1612C32.2891 19.1612 32.6342 19.2976 32.9197 19.5703C33.2095 19.8388 33.3544 20.1605 33.3544 20.5355C33.3544 20.9148 33.2095 21.2408 32.9197 21.5135C32.6342 21.782 32.2891 21.9162 31.8842 21.9162ZM38.3801 31.2102L38.3098 31.9134C38.2544 32.4759 38.1479 33.0362 37.9902 33.5945C37.8368 34.157 37.6749 34.6662 37.5044 35.1222C37.3382 35.5781 37.204 35.9361 37.1017 36.196H35.3375C35.4015 35.9446 35.4888 35.593 35.5996 35.1413C35.7104 34.6939 35.8148 34.1911 35.9128 33.6328C36.0108 33.0746 36.0726 32.5057 36.0982 31.9261L36.1301 31.2102H38.3801ZM56.5016 26.4545C56.5016 27.8821 56.231 29.0966 55.6898 30.098C55.1529 31.0994 54.4199 31.8643 53.4909 32.3928C52.5662 32.9169 51.5265 33.179 50.3716 33.179C49.2083 33.179 48.1642 32.9148 47.2395 32.3864C46.3148 31.858 45.584 31.093 45.0471 30.0916C44.5101 29.0902 44.2417 27.8778 44.2417 26.4545C44.2417 25.027 44.5101 23.8125 45.0471 22.8111C45.584 21.8097 46.3148 21.0469 47.2395 20.5227C48.1642 19.9943 49.2083 19.7301 50.3716 19.7301C51.5265 19.7301 52.5662 19.9943 53.4909 20.5227C54.4199 21.0469 55.1529 21.8097 55.6898 22.8111C56.231 23.8125 56.5016 25.027 56.5016 26.4545ZM53.6955 26.4545C53.6955 25.5298 53.557 24.75 53.28 24.1151C53.0073 23.4801 52.6216 22.9986 52.123 22.6705C51.6245 22.3423 51.0407 22.1783 50.3716 22.1783C49.7026 22.1783 49.1188 22.3423 48.6202 22.6705C48.1216 22.9986 47.7338 23.4801 47.4569 24.1151C47.1841 24.75 47.0478 25.5298 47.0478 26.4545C47.0478 27.3793 47.1841 28.1591 47.4569 28.794C47.7338 29.429 48.1216 29.9105 48.6202 30.2386C49.1188 30.5668 49.7026 30.7308 50.3716 30.7308C51.0407 30.7308 51.6245 30.5668 52.123 30.2386C52.6216 29.9105 53.0073 29.429 53.28 28.794C53.557 28.1591 53.6955 27.3793 53.6955 26.4545ZM58.5007 33V23.1818H61.0959V24.9141H61.2109C61.4155 24.3388 61.7564 23.8849 62.2337 23.5526C62.7109 23.2202 63.282 23.054 63.9467 23.054C64.62 23.054 65.1932 23.2223 65.6662 23.5589C66.1392 23.8913 66.4545 24.343 66.6122 24.9141H66.7145C66.9148 24.3516 67.277 23.902 67.8011 23.5653C68.3295 23.2244 68.9538 23.054 69.674 23.054C70.5902 23.054 71.3338 23.3459 71.9048 23.9297C72.4801 24.5092 72.7678 25.3317 72.7678 26.397V33H70.0511V26.9339C70.0511 26.3885 69.9063 25.9794 69.6165 25.7067C69.3267 25.4339 68.9645 25.2976 68.5298 25.2976C68.0355 25.2976 67.6499 25.4553 67.3729 25.7706C67.0959 26.0817 66.9574 26.4929 66.9574 27.0043V33H64.3175V26.8764C64.3175 26.3949 64.179 26.0114 63.902 25.7259C63.6293 25.4403 63.2692 25.2976 62.8217 25.2976C62.5192 25.2976 62.2464 25.3743 62.0036 25.5277C61.7649 25.6768 61.5753 25.8878 61.4347 26.1605C61.294 26.429 61.2237 26.7443 61.2237 27.1065V33H58.5007ZM77.7184 33.1854C77.092 33.1854 76.5337 33.0767 76.0437 32.8594C75.5536 32.6378 75.1658 32.3118 74.8803 31.8814C74.5991 31.4467 74.4585 30.9055 74.4585 30.2578C74.4585 29.7124 74.5586 29.2543 74.7589 28.8835C74.9592 28.5128 75.2319 28.2145 75.5771 27.9886C75.9222 27.7628 76.3143 27.5923 76.7532 27.4773C77.1964 27.3622 77.6609 27.2812 78.1467 27.2344C78.7177 27.1747 79.1779 27.1193 79.5273 27.0682C79.8768 27.0128 80.1303 26.9318 80.288 26.8253C80.4457 26.7187 80.5245 26.5611 80.5245 26.3523V26.3139C80.5245 25.9091 80.3967 25.5959 80.141 25.3743C79.8896 25.1527 79.5316 25.0419 79.0671 25.0419C78.5771 25.0419 78.1871 25.1506 77.8974 25.3679C77.6076 25.581 77.4158 25.8494 77.3221 26.1733L74.8036 25.9688C74.9315 25.3722 75.1829 24.8565 75.5579 24.4219C75.9329 23.983 76.4165 23.6463 77.0089 23.4119C77.6055 23.1733 78.2958 23.054 79.0799 23.054C79.6254 23.054 80.1474 23.1179 80.646 23.2457C81.1488 23.3736 81.5941 23.5717 81.9819 23.8402C82.3739 24.1087 82.6829 24.4538 82.9087 24.8757C83.1346 25.2933 83.2475 25.794 83.2475 26.3778V33H80.6651V31.6385H80.5884C80.4308 31.9453 80.2198 32.2159 79.9556 32.4503C79.6914 32.6804 79.3739 32.8615 79.0032 32.9936C78.6325 33.1214 78.2042 33.1854 77.7184 33.1854ZM78.4982 31.3061C78.8988 31.3061 79.2525 31.2273 79.5593 31.0696C79.8661 30.9077 80.1069 30.6903 80.2816 30.4176C80.4563 30.1449 80.5437 29.8359 80.5437 29.4908V28.4489C80.4585 28.5043 80.3413 28.5554 80.1921 28.6023C80.0472 28.6449 79.8832 28.6854 79.6999 28.7237C79.5167 28.7578 79.3335 28.7898 79.1502 28.8196C78.967 28.8452 78.8008 28.8686 78.6516 28.8899C78.332 28.9368 78.0529 29.0114 77.8143 29.1136C77.5756 29.2159 77.3903 29.3544 77.2582 29.5291C77.1261 29.6996 77.06 29.9126 77.06 30.1683C77.06 30.5391 77.1942 30.8224 77.4627 31.0185C77.7354 31.2102 78.0806 31.3061 78.4982 31.3061ZM85.3601 33V23.1818H88V24.8949H88.1023C88.2813 24.2855 88.5817 23.8253 89.0036 23.5142C89.4254 23.1989 89.9112 23.0412 90.4609 23.0412C90.5973 23.0412 90.7443 23.0497 90.902 23.0668C91.0597 23.0838 91.1982 23.1072 91.3175 23.1371V25.5533C91.1896 25.5149 91.0128 25.4808 90.7869 25.451C90.5611 25.4212 90.3544 25.4062 90.1669 25.4062C89.7663 25.4062 89.4084 25.4936 89.093 25.6683C88.782 25.8388 88.5348 26.0774 88.3516 26.3842C88.1726 26.6911 88.0831 27.0447 88.0831 27.4453V33H85.3601ZM95.9789 19.9091L95.7296 29.0753H93.3901L93.1344 19.9091H95.9789ZM94.5598 33.1662C94.138 33.1662 93.7757 33.017 93.4732 32.7188C93.1706 32.4162 93.0215 32.054 93.0257 31.6321C93.0215 31.2145 93.1706 30.8565 93.4732 30.5582C93.7757 30.2599 94.138 30.1108 94.5598 30.1108C94.9647 30.1108 95.3205 30.2599 95.6273 30.5582C95.9341 30.8565 96.0897 31.2145 96.0939 31.6321C96.0897 31.9134 96.0151 32.1712 95.8702 32.4055C95.7296 32.6357 95.5442 32.821 95.3141 32.9616C95.084 33.098 94.8326 33.1662 94.5598 33.1662Z" fill="#242424"/>
<path d="M16.9688 56V48H17.9375V51.5625H22.2031V48H23.1719V56H22.2031V52.4219H17.9375V56H16.9688ZM27.4238 56.125C26.8822 56.125 26.4069 55.9961 25.998 55.7383C25.5918 55.4805 25.2741 55.1198 25.0449 54.6562C24.8184 54.1927 24.7051 53.651 24.7051 53.0312C24.7051 52.4062 24.8184 51.8607 25.0449 51.3945C25.2741 50.9284 25.5918 50.5664 25.998 50.3086C26.4069 50.0508 26.8822 49.9219 27.4238 49.9219C27.9655 49.9219 28.4395 50.0508 28.8457 50.3086C29.2546 50.5664 29.5723 50.9284 29.7988 51.3945C30.028 51.8607 30.1426 52.4062 30.1426 53.0312C30.1426 53.651 30.028 54.1927 29.7988 54.6562C29.5723 55.1198 29.2546 55.4805 28.8457 55.7383C28.4395 55.9961 27.9655 56.125 27.4238 56.125ZM27.4238 55.2969C27.8353 55.2969 28.1738 55.1914 28.4395 54.9805C28.7051 54.7695 28.9017 54.4922 29.0293 54.1484C29.1569 53.8047 29.2207 53.4323 29.2207 53.0312C29.2207 52.6302 29.1569 52.2565 29.0293 51.9102C28.9017 51.5638 28.7051 51.2839 28.4395 51.0703C28.1738 50.8568 27.8353 50.75 27.4238 50.75C27.0124 50.75 26.6738 50.8568 26.4082 51.0703C26.1426 51.2839 25.946 51.5638 25.8184 51.9102C25.6908 52.2565 25.627 52.6302 25.627 53.0312C25.627 53.4323 25.6908 53.8047 25.8184 54.1484C25.946 54.4922 26.1426 54.7695 26.4082 54.9805C26.6738 55.1914 27.0124 55.2969 27.4238 55.2969ZM32.7051 56L30.877 50H31.8457L33.1426 54.5938H33.2051L34.4863 50H35.4707L36.7363 54.5781H36.7988L38.0957 50H39.0645L37.2363 56H36.3301L35.0176 51.3906H34.9238L33.6113 56H32.7051ZM43.8301 56H42.8145L45.752 48H46.752L49.6895 56H48.6738L46.2832 49.2656H46.2207L43.8301 56ZM44.2051 52.875H48.2988V53.7344H44.2051V52.875ZM50.8105 56V50H51.7012V50.9062H51.7637C51.873 50.6094 52.071 50.3685 52.3574 50.1836C52.6439 49.9987 52.9668 49.9062 53.3262 49.9062C53.3939 49.9062 53.4785 49.9076 53.5801 49.9102C53.6816 49.9128 53.7585 49.9167 53.8105 49.9219V50.8594C53.7793 50.8516 53.7077 50.8398 53.5957 50.8242C53.4863 50.806 53.3704 50.7969 53.248 50.7969C52.9564 50.7969 52.696 50.8581 52.4668 50.9805C52.2402 51.1003 52.0605 51.2669 51.9277 51.4805C51.7975 51.6914 51.7324 51.9323 51.7324 52.2031V56H50.8105ZM57.2363 56.125C56.6582 56.125 56.1595 55.9974 55.7402 55.7422C55.3236 55.4844 55.002 55.125 54.7754 54.6641C54.5514 54.2005 54.4395 53.6615 54.4395 53.0469C54.4395 52.4323 54.5514 51.8906 54.7754 51.4219C55.002 50.9505 55.3171 50.5833 55.7207 50.3203C56.127 50.0547 56.6009 49.9219 57.1426 49.9219C57.4551 49.9219 57.7637 49.974 58.0684 50.0781C58.373 50.1823 58.6504 50.3516 58.9004 50.5859C59.1504 50.8177 59.3496 51.125 59.498 51.5078C59.6465 51.8906 59.7207 52.362 59.7207 52.9219V53.3125H55.0957V52.5156H58.7832C58.7832 52.1771 58.7155 51.875 58.5801 51.6094C58.4473 51.3437 58.2572 51.1341 58.0098 50.9805C57.765 50.8268 57.4759 50.75 57.1426 50.75C56.7754 50.75 56.4577 50.8411 56.1895 51.0234C55.9238 51.2031 55.7194 51.4375 55.5762 51.7266C55.4329 52.0156 55.3613 52.3255 55.3613 52.6562V53.1875C55.3613 53.6406 55.4395 54.0247 55.5957 54.3398C55.7546 54.6523 55.9746 54.8906 56.2559 55.0547C56.5371 55.2161 56.8639 55.2969 57.2363 55.2969C57.4785 55.2969 57.6973 55.263 57.8926 55.1953C58.0905 55.125 58.2611 55.0208 58.4043 54.8828C58.5475 54.7422 58.6582 54.5677 58.7363 54.3594L59.627 54.6094C59.5332 54.9115 59.3757 55.1771 59.1543 55.4062C58.9329 55.6328 58.6595 55.8099 58.334 55.9375C58.0085 56.0625 57.6426 56.125 57.2363 56.125ZM64.8105 58.25C64.6543 58.25 64.515 58.237 64.3926 58.2109C64.2702 58.1875 64.1855 58.1641 64.1387 58.1406L64.373 57.3281C64.597 57.3854 64.7949 57.4063 64.9668 57.3906C65.1387 57.375 65.291 57.2982 65.4238 57.1602C65.5592 57.0247 65.6829 56.8047 65.7949 56.5L65.9668 56.0313L63.748 50H64.748L66.4043 54.7812H66.4668L68.123 50H69.123L66.5762 56.875C66.4616 57.1849 66.3197 57.4414 66.1504 57.6445C65.9811 57.8503 65.7845 58.0026 65.5605 58.1016C65.3392 58.2005 65.0892 58.25 64.8105 58.25ZM72.5625 56.125C72.0208 56.125 71.5456 55.9961 71.1367 55.7383C70.7305 55.4805 70.4128 55.1198 70.1836 54.6562C69.957 54.1927 69.8438 53.651 69.8438 53.0312C69.8438 52.4062 69.957 51.8607 70.1836 51.3945C70.4128 50.9284 70.7305 50.5664 71.1367 50.3086C71.5456 50.0508 72.0208 49.9219 72.5625 49.9219C73.1042 49.9219 73.5781 50.0508 73.9844 50.3086C74.3932 50.5664 74.7109 50.9284 74.9375 51.3945C75.1667 51.8607 75.2813 52.4062 75.2813 53.0312C75.2813 53.651 75.1667 54.1927 74.9375 54.6562C74.7109 55.1198 74.3932 55.4805 73.9844 55.7383C73.5781 55.9961 73.1042 56.125 72.5625 56.125ZM72.5625 55.2969C72.974 55.2969 73.3125 55.1914 73.5781 54.9805C73.8438 54.7695 74.0404 54.4922 74.168 54.1484C74.2956 53.8047 74.3594 53.4323 74.3594 53.0312C74.3594 52.6302 74.2956 52.2565 74.168 51.9102C74.0404 51.5638 73.8438 51.2839 73.5781 51.0703C73.3125 50.8568 72.974 50.75 72.5625 50.75C72.151 50.75 71.8125 50.8568 71.5469 51.0703C71.2813 51.2839 71.0846 51.5638 70.957 51.9102C70.8294 52.2565 70.7656 52.6302 70.7656 53.0312C70.7656 53.4323 70.8294 53.8047 70.957 54.1484C71.0846 54.4922 71.2813 54.7695 71.5469 54.9805C71.8125 55.1914 72.151 55.2969 72.5625 55.2969ZM80.4697 53.5469V50H81.3916V56H80.4697V54.9844H80.4072C80.2666 55.2891 80.0479 55.5482 79.751 55.7617C79.4541 55.9727 79.0791 56.0781 78.626 56.0781C78.251 56.0781 77.9176 55.9961 77.626 55.832C77.3343 55.6654 77.1051 55.4154 76.9385 55.082C76.7718 54.7461 76.6885 54.3229 76.6885 53.8125V50H77.6104V53.75C77.6104 54.1875 77.7327 54.5365 77.9775 54.7969C78.2249 55.0573 78.54 55.1875 78.9229 55.1875C79.152 55.1875 79.3851 55.1289 79.6221 55.0117C79.8617 54.8945 80.0622 54.7148 80.2236 54.4727C80.3877 54.2305 80.4697 53.9219 80.4697 53.5469ZM85.8613 48.8594V48H91.8613V48.8594H89.3457V56H88.377V48.8594H85.8613ZM94.7988 56.125C94.2572 56.125 93.7819 55.9961 93.373 55.7383C92.9668 55.4805 92.6491 55.1198 92.4199 54.6562C92.1934 54.1927 92.0801 53.651 92.0801 53.0312C92.0801 52.4062 92.1934 51.8607 92.4199 51.3945C92.6491 50.9284 92.9668 50.5664 93.373 50.3086C93.7819 50.0508 94.2572 49.9219 94.7988 49.9219C95.3405 49.9219 95.8145 50.0508 96.2207 50.3086C96.6296 50.5664 96.9473 50.9284 97.1738 51.3945C97.403 51.8607 97.5176 52.4062 97.5176 53.0312C97.5176 53.651 97.403 54.1927 97.1738 54.6562C96.9473 55.1198 96.6296 55.4805 96.2207 55.7383C95.8145 55.9961 95.3405 56.125 94.7988 56.125ZM94.7988 55.2969C95.2103 55.2969 95.5488 55.1914 95.8145 54.9805C96.0801 54.7695 96.2767 54.4922 96.4043 54.1484C96.5319 53.8047 96.5957 53.4323 96.5957 53.0312C96.5957 52.6302 96.5319 52.2565 96.4043 51.9102C96.2767 51.5638 96.0801 51.2839 95.8145 51.0703C95.5488 50.8568 95.2103 50.75 94.7988 50.75C94.3874 50.75 94.0488 50.8568 93.7832 51.0703C93.5176 51.2839 93.321 51.5638 93.1934 51.9102C93.0658 52.2565 93.002 52.6302 93.002 53.0312C93.002 53.4323 93.0658 53.8047 93.1934 54.1484C93.321 54.4922 93.5176 54.7695 93.7832 54.9805C94.0488 55.1914 94.3874 55.2969 94.7988 55.2969ZM101.19 56.125C100.69 56.125 100.249 55.9987 99.8662 55.7461C99.4834 55.4909 99.1839 55.1315 98.9678 54.668C98.7516 54.2018 98.6436 53.651 98.6436 53.0156C98.6436 52.3854 98.7516 51.8385 98.9678 51.375C99.1839 50.9115 99.4847 50.5534 99.8701 50.3008C100.256 50.0482 100.701 49.9219 101.206 49.9219C101.597 49.9219 101.905 49.987 102.132 50.1172C102.361 50.2448 102.535 50.3906 102.655 50.5547C102.778 50.7161 102.873 50.849 102.94 50.9531H103.019V48H103.94V56H103.05V55.0781H102.94C102.873 55.1875 102.776 55.3255 102.651 55.4922C102.526 55.6562 102.348 55.8034 102.116 55.9336C101.884 56.0612 101.576 56.125 101.19 56.125ZM101.315 55.2969C101.685 55.2969 101.998 55.2005 102.253 55.0078C102.508 54.8125 102.702 54.543 102.835 54.1992C102.968 53.8529 103.034 53.4531 103.034 53C103.034 52.5521 102.969 52.1602 102.839 51.8242C102.709 51.4857 102.516 51.2227 102.261 51.0352C102.006 50.8451 101.69 50.75 101.315 50.75C100.925 50.75 100.599 50.8503 100.339 51.0508C100.081 51.2487 99.887 51.5182 99.7568 51.8594C99.6292 52.1979 99.5654 52.5781 99.5654 53C99.5654 53.4271 99.6305 53.8151 99.7607 54.1641C99.8936 54.5104 100.089 54.7865 100.347 54.9922C100.607 55.1953 100.93 55.2969 101.315 55.2969ZM107.522 56.1406C107.142 56.1406 106.797 56.069 106.487 55.9258C106.177 55.7799 105.931 55.5703 105.749 55.2969C105.567 55.0208 105.476 54.6875 105.476 54.2969C105.476 53.9531 105.543 53.6745 105.679 53.4609C105.814 53.2448 105.995 53.0755 106.222 52.9531C106.448 52.8307 106.698 52.7396 106.972 52.6797C107.248 52.6172 107.525 52.5677 107.804 52.5313C108.168 52.4844 108.464 52.4492 108.69 52.4258C108.92 52.3997 109.086 52.3568 109.19 52.2969C109.297 52.237 109.351 52.1328 109.351 51.9844V51.9531C109.351 51.5677 109.245 51.2682 109.034 51.0547C108.826 50.8411 108.509 50.7344 108.085 50.7344C107.645 50.7344 107.3 50.8307 107.05 51.0234C106.8 51.2161 106.624 51.4219 106.522 51.6406L105.647 51.3281C105.804 50.9635 106.012 50.6797 106.272 50.4766C106.535 50.2708 106.822 50.1276 107.132 50.0469C107.444 49.9635 107.752 49.9219 108.054 49.9219C108.246 49.9219 108.468 49.9453 108.718 49.9922C108.97 50.0365 109.214 50.1289 109.448 50.2695C109.685 50.4102 109.882 50.6224 110.038 50.9062C110.194 51.1901 110.272 51.5703 110.272 52.0469V56H109.351V55.1875H109.304C109.241 55.3177 109.137 55.457 108.991 55.6055C108.845 55.7539 108.651 55.8802 108.409 55.9844C108.167 56.0885 107.871 56.1406 107.522 56.1406ZM107.663 55.3125C108.028 55.3125 108.335 55.2409 108.585 55.0977C108.838 54.9544 109.028 54.7695 109.155 54.543C109.285 54.3164 109.351 54.0781 109.351 53.8281V52.9844C109.312 53.0312 109.226 53.0742 109.093 53.1133C108.963 53.1497 108.812 53.1823 108.64 53.2109C108.47 53.237 108.305 53.2604 108.144 53.2812C107.985 53.2995 107.856 53.3151 107.757 53.3281C107.517 53.3594 107.293 53.4102 107.085 53.4805C106.879 53.5482 106.713 53.651 106.585 53.7891C106.46 53.9245 106.397 54.1094 106.397 54.3437C106.397 54.6641 106.516 54.9062 106.753 55.0703C106.993 55.2318 107.296 55.3125 107.663 55.3125ZM112.334 58.25C112.178 58.25 112.038 58.237 111.916 58.2109C111.794 58.1875 111.709 58.1641 111.662 58.1406L111.896 57.3281C112.12 57.3854 112.318 57.4063 112.49 57.3906C112.662 57.375 112.814 57.2982 112.947 57.1602C113.083 57.0247 113.206 56.8047 113.318 56.5L113.49 56.0313L111.271 50H112.271L113.928 54.7812H113.99L115.646 50H116.646L114.1 56.875C113.985 57.1849 113.843 57.4414 113.674 57.6445C113.505 57.8503 113.308 58.0026 113.084 58.1016C112.863 58.2005 112.613 58.25 112.334 58.25ZM119.066 53.75V53.7031C119.072 53.2057 119.124 52.8099 119.223 52.5156C119.322 52.2214 119.462 51.9831 119.645 51.8008C119.827 51.6185 120.046 51.4505 120.301 51.2969C120.454 51.2031 120.592 51.0924 120.715 50.9648C120.837 50.8346 120.934 50.6849 121.004 50.5156C121.077 50.3464 121.113 50.1589 121.113 49.9531C121.113 49.6979 121.053 49.4766 120.934 49.2891C120.814 49.1016 120.654 48.957 120.453 48.8555C120.253 48.7539 120.03 48.7031 119.785 48.7031C119.572 48.7031 119.366 48.7474 119.168 48.8359C118.97 48.9245 118.805 49.0638 118.672 49.2539C118.539 49.444 118.462 49.6927 118.441 50H117.457C117.478 49.5573 117.592 49.1784 117.801 48.8633C118.012 48.5482 118.289 48.3073 118.633 48.1406C118.979 47.974 119.363 47.8906 119.785 47.8906C120.243 47.8906 120.642 47.9818 120.98 48.1641C121.322 48.3464 121.585 48.5964 121.77 48.9141C121.957 49.2318 122.051 49.5937 122.051 50C122.051 50.2865 122.007 50.5456 121.918 50.7773C121.832 51.0091 121.707 51.2161 121.543 51.3984C121.382 51.5807 121.186 51.7422 120.957 51.8828C120.728 52.026 120.544 52.1771 120.406 52.3359C120.268 52.4922 120.168 52.6784 120.105 52.8945C120.043 53.1107 120.009 53.3802 120.004 53.7031V53.75H119.066ZM119.566 56.0625C119.374 56.0625 119.208 55.9935 119.07 55.8555C118.932 55.7174 118.863 55.5521 118.863 55.3594C118.863 55.1667 118.932 55.0013 119.07 54.8633C119.208 54.7253 119.374 54.6562 119.566 54.6562C119.759 54.6562 119.924 54.7253 120.063 54.8633C120.201 55.0013 120.27 55.1667 120.27 55.3594C120.27 55.487 120.237 55.6042 120.172 55.7109C120.109 55.8177 120.025 55.9036 119.918 55.9687C119.814 56.0313 119.697 56.0625 119.566 56.0625Z" fill="#616161"/>
<g filter="url(#filter0_b_2_3241)">
<rect x="311" y="12" width="48" height="48" rx="24" fill="#F5F5F5"/>
<path d="M335 25.9962C339.05 25.9962 342.357 29.191 342.496 33.2453L342.5 33.4962V37.5932L343.88 40.7492C343.949 40.9071 343.985 41.0776 343.985 41.25C343.985 41.9403 343.425 42.5 342.735 42.5L338 42.5015C338 44.1583 336.657 45.5015 335 45.5015C333.402 45.5015 332.096 44.2526 332.005 42.6778L332 42.4992L327.275 42.5C327.104 42.5 326.934 42.4648 326.777 42.3965C326.144 42.1215 325.853 41.3852 326.128 40.752L327.5 37.5941V33.4961C327.501 29.3413 330.852 25.9962 335 25.9962ZM336.5 42.4992L333.5 42.5015C333.5 43.3299 334.172 44.0015 335 44.0015C335.78 44.0015 336.42 43.4066 336.493 42.6459L336.5 42.4992ZM335 27.4962C331.68 27.4962 329 30.1705 329 33.4962V37.9058L327.656 41H342.353L341 37.9068L341 33.5091L340.996 33.2839C340.885 30.0504 338.242 27.4962 335 27.4962Z" fill="#242424"/>
<circle cx="342" cy="29" r="4" fill="#FF4C5E"/>
</g>
<defs>
<filter id="filter0_b_2_3241" x="291" y="-8" width="88" height="88" filterUnits="userSpaceOnUse" color-interpolation-filters="sRGB">
<feFlood flood-opacity="0" result="BackgroundImageFix"/>
<feGaussianBlur in="BackgroundImageFix" stdDeviation="10"/>
<feComposite in2="SourceAlpha" operator="in" result="effect1_backgroundBlur_2_3241"/>
<feBlend mode="normal" in="SourceGraphic" in2="effect1_backgroundBlur_2_3241" result="shape"/>
</filter>
</defs>
</svg>
